<svg width="141" height="24" viewBox="0 0 141 24" fill="none" xmlns="http://www.w3.org/2000/svg">
<ellipse cx="131.191" cy="12.3243" rx="5.51739" ry="5.83784" fill="#FFA400"/>
<path fill-rule="evenodd" clip-rule="evenodd" d="M123.476 5.25594C123.613 5.12071 123.84 5.12035 123.982 5.25512L126.186 7.33857C126.329 7.47335 126.333 7.69223 126.196 7.82746C126.059 7.96269 125.833 7.96305 125.69 7.82827L123.486 5.74482C123.344 5.61005 123.339 5.39116 123.476 5.25594Z" fill="#FFA400"/>
<path fill-rule="evenodd" clip-rule="evenodd" d="M127.105 2.21098C127.28 2.14096 127.49 2.23173 127.573 2.41371L128.864 5.22694C128.947 5.40892 128.873 5.61322 128.698 5.68324C128.522 5.75326 128.313 5.66249 128.229 5.48051L126.939 2.66728C126.855 2.4853 126.93 2.281 127.105 2.21098Z" fill="#FFA400"/>
<path fill-rule="evenodd" clip-rule="evenodd" d="M132.67 1.42734C132.85 1.48299 132.966 1.68902 132.929 1.88751L132.359 4.9559C132.323 5.15439 132.147 5.27018 131.967 5.21453C131.787 5.15888 131.672 4.95286 131.708 4.75437L132.278 1.68598C132.315 1.48749 132.49 1.37169 132.67 1.42734Z" fill="#FFA400"/>
<path fill-rule="evenodd" clip-rule="evenodd" d="M137.403 4.19048C137.532 4.3341 137.535 4.57384 137.409 4.72594L135.461 7.07726C135.335 7.22937 135.128 7.23625 134.999 7.09262C134.87 6.949 134.867 6.70926 134.993 6.55716L136.941 4.20584C137.067 4.05373 137.274 4.04686 137.403 4.19048Z" fill="#FFA400"/>
<path fill-rule="evenodd" clip-rule="evenodd" d="M140.809 9.48746C140.872 9.66905 140.783 9.86175 140.611 9.91787L137.941 10.7855C137.768 10.8416 137.577 10.7399 137.513 10.5583C137.45 10.3767 137.539 10.184 137.711 10.1279L140.381 9.26029C140.554 9.20416 140.745 9.30587 140.809 9.48746Z" fill="#FFA400"/>
<path fill-rule="evenodd" clip-rule="evenodd" d="M140.784 14.7184C140.749 14.9083 140.578 15.0239 140.403 14.9766L137.697 14.245C137.522 14.1976 137.409 14.0053 137.444 13.8154C137.48 13.6254 137.65 13.5098 137.825 13.5572L140.531 14.2888C140.706 14.3361 140.819 14.5284 140.784 14.7184Z" fill="#FFA400"/>
<path fill-rule="evenodd" clip-rule="evenodd" d="M125.105 11.4045C125.082 11.5966 124.92 11.7244 124.742 11.6901L121.995 11.1594C121.817 11.1251 121.691 10.9416 121.714 10.7495C121.737 10.5574 121.899 10.4295 122.077 10.4639L124.825 10.9945C125.002 11.0289 125.128 11.2124 125.105 11.4045Z" fill="#FFA400"/>
<path d="M101.803 13.5523V22.9276C101.803 23.1523 101.247 23.3362 100.134 23.4791C99.0415 23.6017 97.8998 23.663 96.7094 23.663C95.5384 23.663 94.7773 23.6119 94.426 23.5098C94.0748 23.3872 93.8991 23.1932 93.8991 22.9276V14.4408C93.8991 11.52 93.6161 10.0596 93.0502 10.0596C92.9136 10.0596 92.777 10.1208 92.6404 10.2434C92.5037 10.3659 92.4354 10.5804 92.4354 10.8868V22.9276C92.4354 23.1523 91.8792 23.3362 90.7669 23.4791C89.674 23.6017 88.5323 23.663 87.3419 23.663C86.1514 23.663 85.3806 23.6119 85.0293 23.5098C84.6975 23.3872 84.5316 23.1932 84.5316 22.9276V14.4408C84.5316 12.1736 84.395 10.8153 84.1218 10.3659C83.9852 10.1617 83.8096 10.0596 83.5949 10.0596C83.2241 10.0596 83.0387 10.3353 83.0387 10.8868V22.9276C83.0387 23.1523 82.4825 23.3362 81.3701 23.4791C80.2577 23.6017 79.1063 23.663 77.9159 23.663C76.7449 23.663 75.9838 23.6119 75.6325 23.5098C75.3008 23.3872 75.1349 23.1932 75.1349 22.9276V7.82296C75.1349 7.39403 75.6911 6.96509 76.8035 6.53615C77.9354 6.10722 79.1258 5.89275 80.3748 5.89275C81.6238 5.89275 82.3264 6.27062 82.4825 7.02637L82.746 8.37445H82.9509C83.5168 7.2102 84.4536 6.38296 85.7611 5.89275C86.3076 5.70892 87.0101 5.617 87.8688 5.617C89.5862 5.617 90.8352 6.53615 91.6158 8.37445C91.8695 7.76169 92.5037 7.14892 93.5186 6.53615C94.5334 5.92339 95.6555 5.617 96.885 5.617C98.817 5.617 100.115 6.2502 100.778 7.51658C101.461 8.76254 101.803 10.7745 101.803 13.5523Z" fill="url(#paint0_linear_55_157)"/>
<path d="M111.564 16.7387C111.564 18.0664 112.169 18.7302 113.379 18.7302C114.081 18.7302 114.999 18.4851 116.131 17.9949C117.263 17.4842 117.858 17.2289 117.916 17.2289C118.287 17.2289 118.775 17.811 119.38 18.9753C119.985 20.1396 120.287 20.9974 120.287 21.5489C120.287 22.3455 119.507 22.9481 117.946 23.3566C116.384 23.7651 114.852 23.9693 113.35 23.9693C111.866 23.9693 110.617 23.8468 109.603 23.6017C108.607 23.3566 107.788 23.0502 107.144 22.6825C106.519 22.2945 105.963 21.8247 105.475 21.2732C105.007 20.7217 104.655 20.2008 104.421 19.7106C104.187 19.2 104.002 18.6383 103.865 18.0255C103.67 17.1268 103.572 16.1974 103.572 15.2374C103.572 11.52 104.499 8.95658 106.353 7.54722C107.271 6.83232 108.295 6.3319 109.427 6.04594C110.559 5.75998 111.896 5.617 113.437 5.617C118.375 5.617 120.844 7.41445 120.844 11.0093C120.844 14.8289 118.072 16.7387 112.53 16.7387H111.564ZM111.505 12.2655V14.2876C112.071 14.2876 112.53 14.0527 112.881 13.583C113.252 13.1132 113.437 12.5413 113.437 11.8672C113.437 10.6417 113.135 10.0289 112.53 10.0289C111.847 10.0289 111.505 10.7745 111.505 12.2655Z" fill="url(#paint1_linear_55_157)"/>
<path d="M126.766 13.7891C116.883 13.6573 112.622 20.5415 111.727 24H141C139.478 20.9806 136.649 13.9208 126.766 13.7891Z" fill="url(#paint2_linear_55_157)"/>
<path d="M5.60467 23.9696C3.86099 23.9696 2.49096 23.5342 1.49458 22.6633C1.09219 22.2987 0.737708 21.762 0.431128 21.0532C0.143709 20.3443 0 19.5139 0 18.562C0 17.6101 0.210774 16.7797 0.632321 16.0709C1.07303 15.362 1.59996 14.8152 2.21312 14.4304C2.82628 14.0456 3.54483 13.7316 4.36876 13.4886C5.61425 13.1443 6.98427 12.9722 8.47885 12.9722H9.42733C9.42733 12.1418 9.15908 11.5544 8.62256 11.2101C8.39263 11.0684 8.03814 10.9975 7.55911 10.9975C7.09924 10.9975 6.53399 11.1291 5.86334 11.3924C5.21186 11.6557 4.66576 11.9291 4.22506 12.2127C3.78435 12.4759 3.48735 12.6076 3.33406 12.6076C2.98915 12.6076 2.5197 12.1316 1.92571 11.1797C1.33171 10.2076 1.03471 9.32658 1.03471 8.53671C1.03471 8.27342 1.38919 7.92911 2.09816 7.5038C2.80712 7.07848 3.80351 6.69367 5.08731 6.34937C6.39028 5.98481 7.65492 5.80253 8.88124 5.80253C10.1076 5.80253 11.1614 5.91392 12.0428 6.13671C12.9434 6.33924 13.6716 6.59241 14.2272 6.8962C14.8021 7.2 15.2811 7.60506 15.6643 8.11139C16.0667 8.61772 16.3637 9.07342 16.5553 9.47848C16.7661 9.88354 16.9194 10.4101 17.0152 11.0582C17.1493 11.8076 17.2164 12.7291 17.2164 13.8228V22.9671C17.2164 23.1899 16.699 23.3722 15.6643 23.5139C14.6488 23.6354 13.6332 23.6962 12.6177 23.6962C11.6213 23.6962 10.9698 23.6658 10.6632 23.6051C10.3758 23.5443 10.2034 23.4734 10.1459 23.3924C10.0884 23.3114 10.0405 23.1696 10.0022 22.9671L9.77224 21.2354H9.5423C9.06327 23.0582 7.75072 23.9696 5.60467 23.9696ZM9.45608 18.9266V15.3722C8.95788 15.3722 8.5555 15.5949 8.24892 16.0405C7.94234 16.4861 7.78905 16.9924 7.78905 17.5595C7.78905 18.8962 8.07647 19.5646 8.6513 19.5646C8.9004 19.5646 9.09201 19.5038 9.22614 19.3823C9.37943 19.2405 9.45608 19.0886 9.45608 18.9266Z" fill="#060023"/>
<path d="M28.5137 13.6709V22.9671C28.5137 23.1899 27.9868 23.3722 26.9329 23.5139C25.8791 23.6354 24.5857 23.6962 23.0528 23.6962C21.5199 23.6962 20.7534 23.4532 20.7534 22.9671V13.6709H19.2876C18.7702 13.6709 18.5116 12.7494 18.5116 10.9063C18.5116 10.1772 18.6265 9.49873 18.8565 8.87089C19.1056 8.22278 19.4217 7.89873 19.8049 7.89873H20.7534C20.7534 6.54177 20.9355 5.35696 21.2995 4.3443C21.6827 3.33165 22.133 2.56202 22.6504 2.03544C23.1869 1.48861 23.8288 1.05316 24.5761 0.729114C25.6874 0.243038 26.9521 0 28.37 0C31.934 0 33.716 0.617721 33.716 1.85316C33.716 3.18987 33.5915 4.28354 33.3424 5.13418C33.0933 5.98481 32.7579 6.41013 32.3364 6.41013C32.1639 6.41013 31.8382 6.34937 31.3592 6.22785C30.8993 6.08608 30.4586 6.01519 30.0371 6.01519C28.9257 6.01519 28.37 6.42025 28.37 7.23038C28.37 7.43291 28.4179 7.6557 28.5137 7.89873H32.3364C32.8538 7.89873 33.1124 8.78987 33.1124 10.5722C33.1124 11.362 32.9975 12.081 32.7675 12.7291C32.5568 13.357 32.2693 13.6709 31.9053 13.6709H28.5137Z" fill="#060023"/>
<path d="M46.5807 23.4228C46.2358 23.7671 45.4502 23.9392 44.2239 23.9392C42.9975 23.9392 41.982 23.8582 41.1772 23.6962C40.3724 23.5139 39.606 23.1696 38.8779 22.6633C37.4791 21.6709 36.7797 19.6051 36.7797 16.4658V11.7266H35.3426C35.1318 11.7266 34.9498 11.4937 34.7965 11.0278C34.6432 10.562 34.5666 9.92405 34.5666 9.11392C34.5666 8.3038 34.6816 7.59494 34.9115 6.98734C35.1606 6.35949 35.4767 6.04557 35.86 6.04557H36.7797V2.36962C36.7797 1.74177 37.3546 1.23544 38.5042 0.850633C39.6731 0.465823 40.8132 0.273418 41.9245 0.273418C43.6682 0.273418 44.54 0.729114 44.54 1.64051V6.04557H46.6669C47.1651 6.04557 47.4142 6.80506 47.4142 8.32405C47.4142 9.31646 47.2992 10.1367 47.0693 10.7848C46.8585 11.4127 46.5807 11.7266 46.2358 11.7266H44.54V17.2861C44.54 17.8329 44.7604 18.2278 45.2011 18.4709C45.6418 18.6937 46.025 18.8051 46.3508 18.8051C46.6957 18.8051 46.9064 18.9772 46.9831 19.3215C47.0597 19.6658 47.098 20.1823 47.098 20.8709C47.098 22.2278 46.9256 23.0785 46.5807 23.4228Z" fill="#060023"/>
<path d="M56.71 16.8304C56.71 18.1468 57.304 18.8051 58.492 18.8051C59.1818 18.8051 60.0823 18.562 61.1937 18.0759C62.305 17.5696 62.8895 17.3165 62.9469 17.3165C63.311 17.3165 63.79 17.8937 64.384 19.0481C64.978 20.2025 65.275 21.0532 65.275 21.6C65.275 22.3899 64.5086 22.9873 62.9757 23.3924C61.4428 23.7975 59.9386 24 58.4632 24C57.007 24 55.7806 23.8785 54.7843 23.6354C53.807 23.3924 53.0023 23.0886 52.3699 22.7241C51.7568 22.3392 51.2107 21.8734 50.7316 21.3266C50.2718 20.7797 49.9269 20.2633 49.6969 19.7772C49.467 19.2709 49.285 18.7139 49.1508 18.1063C48.9592 17.2152 48.8634 16.2937 48.8634 15.3418C48.8634 11.6557 49.7736 9.11392 51.5939 7.71646C52.4945 7.00759 53.5004 6.51139 54.6118 6.22785C55.7232 5.9443 57.0357 5.80253 58.5494 5.80253C63.3972 5.80253 65.8211 7.58481 65.8211 11.1494C65.8211 14.9367 63.1002 16.8304 57.6584 16.8304H56.71ZM56.6525 12.3949V14.4C57.2082 14.4 57.6584 14.1671 58.0033 13.7013C58.3674 13.2354 58.5494 12.6684 58.5494 12C58.5494 10.7848 58.2524 10.1772 57.6584 10.1772C56.9878 10.1772 56.6525 10.9165 56.6525 12.3949Z" fill="#060023"/>
<path d="M75.2958 14.0962V22.9671C75.2958 23.1899 74.7497 23.3722 73.6576 23.5139C72.5845 23.6354 71.4636 23.6962 70.2948 23.6962C69.1451 23.6962 68.3978 23.6456 68.0529 23.5443C67.708 23.4228 67.5355 23.2304 67.5355 22.9671V7.98987C67.5355 7.60506 68.0625 7.18987 69.1163 6.7443C70.1894 6.29873 71.3486 6.07595 72.5941 6.07595C73.8587 6.07595 74.5677 6.44051 74.721 7.16962L75.0084 8.56709H75.2096C75.4779 7.79747 76.1198 7.14937 77.1353 6.62278C78.1509 6.07595 79.1664 5.80253 80.182 5.80253C81.1975 5.80253 81.9065 5.97468 82.3089 6.31899C82.7304 6.66329 82.9412 7.10886 82.9412 7.6557C82.9412 8.18228 82.9029 8.86076 82.8262 9.69114C82.7496 10.5215 82.558 11.4228 82.2514 12.3949C81.964 13.3671 81.5807 13.8532 81.1017 13.8532C80.9101 13.8532 80.3065 13.7013 79.291 13.3975C78.2754 13.0937 77.4323 12.9418 76.7617 12.9418C76.1102 12.9418 75.6982 13.043 75.5258 13.2456C75.3725 13.4481 75.2958 13.7316 75.2958 14.0962Z" fill="#060023"/>
<defs>
<linearGradient id="paint0_linear_55_157" x1="97.9893" y1="5.617" x2="97.9893" y2="23.9693" gradientUnits="userSpaceOnUse">
<stop stop-color="#FFA400"/>
<stop offset="1" stop-color="#FFD900"/>
</linearGradient>
<linearGradient id="paint1_linear_55_157" x1="97.9893" y1="5.617" x2="97.9893" y2="23.9693" gradientUnits="userSpaceOnUse">
<stop stop-color="#FFA400"/>
<stop offset="1" stop-color="#FFD900"/>
</linearGradient>
<linearGradient id="paint2_linear_55_157" x1="126.363" y1="13.7872" x2="126.363" y2="24" gradientUnits="userSpaceOnUse">
<stop stop-color="#FFA400"/>
<stop offset="1" stop-color="#FFD900"/>
</linearGradient>
</defs>
</svg>
